<svg width="95" height="92" viewBox="0 0 95 92" fill="none" xmlns="http://www.w3.org/2000/svg">
<rect width="95" height="92" rx="14" fill="#013b52"/>
<path d="M20.5926 46.3747V45.6253C25.1869 45.1564 27.436 42.7978 27.436 38.2693V30.0076C27.436 24.9779 29.2189 22.9366 33.6257 22.9366H34.8737V18.5H33.1549C25.7857 18.5 22.3114 21.9895 22.3114 29.3133V36.3199C22.3114 41.3496 20.5926 43.0139 15.5 43.0139V48.9861C20.5926 48.9861 22.3114 50.6504 22.3114 55.6801V62.6867C22.3114 70.0105 25.7811 73.5 33.1549 73.5H34.8737V69.068H33.6257C29.2189 69.068 27.436 67.0267 27.436 61.997V53.7307C27.436 49.2068 25.1869 46.8482 20.5926 46.3747ZM74.4074 45.6253V46.3747C69.8131 46.8482 67.564 49.2068 67.564 53.7307V61.997C67.564 67.0267 65.7811 69.068 61.3743 69.068H60.1263V73.5H61.8451C69.2189 73.5 72.6886 70.0105 72.6886 62.6867V55.6801C72.6886 50.6504 74.4074 48.9861 79.5 48.9861V43.0139C74.4074 43.0139 72.6886 41.3496 72.6886 36.3199V29.3133C72.6886 21.9895 69.2143 18.5 61.8451 18.5H60.1263V22.932H61.3743C65.7811 22.932 67.564 24.9733 67.564 30.003V38.2693C67.564 42.7932 69.8131 45.1518 74.4074 45.6253Z" fill="white"/>
<path d="M34.1392 59.5L38.4858 33.3182H44.0213L42.2315 44.1207H53.4688L55.2585 33.3182H60.7812L56.4347 59.5H50.9119L52.7017 48.6847H41.4645L39.6747 59.5H34.1392Z" fill="white"/>
</svg>
